# xmcd
#
# Track frame offsets:
#	150
#	3765
#	27130
#	48832
#	66210
#	91450
#	114915
#	130327
#	150170
#	168072
#	187012
#	213567
#
# Disc length: 3045 seconds
#
# Revision: 1
# Processed by: cddbd v1.5.1PL0 Copyright (c) Steve Scherf et al.
# Submitted via: CDex 1.50Beta5
#
DISCID=8c0be30c
DTITLE=cuetracks - scene spectrum
DYEAR=2002
DGENRE=Rock
TTITLE0=Love Beating
TTITLE1=沈まない月
TTITLE2=Loadstar
TTITLE3=Half Embraced
TTITLE4=You Are
TTITLE5=太陽は海に
TTITLE6=When I Was In My Prime
TTITLE7=No Way Out
TTITLE8=同じ時間の空の下
TTITLE9=Like A bird→directon 2
TTITLE10=Reflection In The Moon:Night Moon Remake
TTITLE11=zero 21 sky
EXTD=
EXTT0=
EXTT1=
EXTT2=
EXTT3=
EXTT4=
EXTT5=
EXTT6=
EXTT7=
EXTT8=
EXTT9=
EXTT10=
EXTT11=
PLAYORDER=
